<svg xmlns="http://www.w3.org/2000/svg" width="16" height="16" viewBox="0 0 16 16">
    <g fill="#FFF" fill-rule="evenodd">
        <path d="M6.5 14.464c.278 0 .5-.222.5-.5 0-.277-.222-.5-.5-.5s-.5.223-.5.5c0 .278.222.5.5.5zM3.263 13.405c.237.118.533.06.651-.176.178-.236.06-.531-.177-.708-.237-.118-.533-.059-.651.236-.178.236-.06.53.177.648zM1.047 11.199c.148.245.442.343.688.196.245-.147.343-.442.196-.687-.147-.245-.442-.294-.687-.196-.246.147-.295.441-.197.687z" opacity=".2" transform="translate(1)"/>
        <path d="M0 7.964c0 .3.2.5.5.5.25 0 .5-.2.5-.5 0-.25-.25-.5-.5-.5-.3 0-.5.25-.5.5zM1.065 4.72c-.138.227-.046.544.183.68.23.136.55.046.687-.181.138-.272.046-.544-.183-.68-.275-.136-.55-.091-.687.181z" opacity=".4" transform="translate(1)"/>
        <path d="M3.522 1.583c-.491.252-.655.923-.41 1.427.328.42.9.588 1.39.336.491-.252.655-.924.328-1.427-.245-.42-.818-.588-1.308-.336zM7 .464c-.538 0-1 .462-1 1 0 .539.462 1 1 1s1-.461 1-1c0-.538-.462-1-1-1z" opacity=".6" transform="translate(1)"/>
        <path d="M10.478 1.632c-.47-.338-1.073-.135-1.341.34-.268.473-.134 1.083.335 1.354.536.271 1.14.136 1.408-.339.268-.474.067-1.084-.402-1.355zM12.856 3.973c-.295-.482-.886-.663-1.358-.361-.472.24-.649.843-.354 1.324.295.482.886.663 1.358.422.472-.301.649-.903.354-1.385z" opacity=".8" transform="translate(1)"/>
        <path d="M14 7.464c0-.53-.47-1-1-1-.588 0-1 .47-1 1s.412 1 1 1c.53 0 1-.47 1-1zM12.872 10.953c.266-.434.106-1.086-.373-1.358-.48-.271-1.066-.109-1.333.38-.32.49-.16 1.087.32 1.358.48.272 1.12.11 1.386-.38z" transform="translate(1)"/>
    </g>
</svg>
