<svg xmlns="http://www.w3.org/2000/svg" width="32" height="32" viewBox="0 0 32 32">
    <g fill="#FFF" fill-rule="evenodd">
        <path d="M9.75 21.696c.417 0 .75-.333.75-.75 0-.416-.333-.75-.75-.75s-.75.334-.75.75c0 .417.333.75.75.75zM4.895 20.108c.355.177.8.088.977-.265.266-.354.089-.796-.267-1.061-.355-.177-.8-.089-.977.353-.266.354-.089.796.267.973zM1.571 16.798c.221.368.663.516 1.03.295.369-.221.516-.663.295-1.031-.22-.368-.662-.442-1.03-.294-.369.22-.442.662-.295 1.03z" opacity=".2" transform="translate(5.5 4)"/>
        <path d="M0 11.946c0 .45.3.75.75.75.375 0 .75-.3.75-.75 0-.375-.375-.75-.75-.75-.45 0-.75.375-.75.75zM1.597 7.08c-.206.34-.069.816.275 1.02.344.205.825.069 1.031-.272.206-.408.069-.816-.275-1.02-.412-.204-.825-.136-1.031.272z" opacity=".4" transform="translate(5.5 4)"/>
        <path d="M5.282 2.374c-.736.378-.98 1.385-.613 2.141.49.63 1.35.882 2.085.504.736-.378.981-1.386.49-2.141-.367-.63-1.226-.882-1.962-.504zM10.5.696c-.808 0-1.5.693-1.5 1.5 0 .808.692 1.5 1.5 1.5s1.5-.692 1.5-1.5c0-.807-.692-1.5-1.5-1.5z" opacity=".6" transform="translate(5.5 4)"/>
        <path d="M15.716 2.449c-.704-.508-1.609-.204-2.011.508-.402.711-.201 1.626.503 2.032.804.407 1.71.203 2.112-.508.402-.711.1-1.626-.604-2.032zM19.284 5.96c-.443-.723-1.328-.994-2.036-.543-.709.362-.974 1.265-.532 1.988.443.722 1.328.993 2.036.632.709-.452.974-1.355.532-2.078z" opacity=".8" transform="translate(5.5 4)"/>
        <path d="M21 11.196c0-.794-.706-1.5-1.5-1.5-.882 0-1.5.706-1.5 1.5 0 .795.618 1.5 1.5 1.5.794 0 1.5-.705 1.5-1.5zM19.307 16.43c.4-.652.16-1.63-.56-2.037-.719-.408-1.598-.163-1.997.57-.48.733-.24 1.63.48 2.037.719.408 1.678.163 2.077-.57z" transform="translate(5.5 4)"/>
    </g>
</svg>
