<svg xmlns="http://www.w3.org/2000/svg" width="52" height="52" viewBox="0 0 52 52">
    <g fill="#FFF" opacity=".6">
        <path d="M4 17.5C4 24.956 10.044 31 17.5 31S31 24.956 31 17.5" transform="translate(8 8)"/>
        <path d="M17.5 0C27.165 0 35 7.835 35 17.5S27.165 35 17.5 35 0 27.165 0 17.5 7.835 0 17.5 0zm0 2.333c-8.376 0-15.167 6.79-15.167 15.167 0 8.376 6.79 15.167 15.167 15.167 8.376 0 15.167-6.79 15.167-15.167 0-8.376-6.79-15.167-15.167-15.167z" transform="translate(8 8)"/>
    </g>
</svg>
