<svg xmlns="http://www.w3.org/2000/svg" xmlns:xlink="http://www.w3.org/1999/xlink" width="154" height="154" viewBox="0 0 154 154">
    <defs>
        <path id="prefix__a" d="M0 0H154V154H0z"/>
        <path id="prefix__c" d="M37.245 2.66H9.755c-3.918 0-7.095 3.177-7.095 7.095v27.49c0 3.918 3.177 7.095 7.095 7.095h27.49c3.918 0 7.095-3.177 7.095-7.095V9.755c0-3.918-3.177-7.095-7.095-7.095zm0 3.548c1.96 0 3.547 1.588 3.547 3.547v27.49c0 1.96-1.588 3.547-3.547 3.547H9.755c-1.96 0-3.547-1.588-3.547-3.547V9.755c0-1.96 1.588-3.547 3.547-3.547h27.49z"/>
        <filter id="prefix__d" width="112%" height="112%" x="-6%" y="-6%" filterUnits="objectBoundingBox">
            <feGaussianBlur in="SourceAlpha" result="shadowBlurInner1" stdDeviation="1.5"/>
            <feOffset dy="2" in="shadowBlurInner1" result="shadowOffsetInner1"/>
            <feComposite in="shadowOffsetInner1" in2="SourceAlpha" k2="-1" k3="1" operator="arithmetic" result="shadowInnerInner1"/>
            <feColorMatrix in="shadowInnerInner1" values="0 0 0 0 0 0 0 0 0 0 0 0 0 0 0 0 0 0 0.6 0"/>
        </filter>
    </defs>
    <g fill="none" fill-rule="evenodd">
        <mask id="prefix__b" fill="#fff">
            <use xlink:href="#prefix__a"/>
        </mask>
        <g fill-rule="nonzero" mask="url(#prefix__b)">
            <g fill="#000" transform="translate(43 71)">
                <use fill-opacity=".5" xlink:href="#prefix__c"/>
                <use filter="url(#prefix__d)" xlink:href="#prefix__c"/>
            </g>
        </g>
    </g>
</svg>
