<svg xmlns="http://www.w3.org/2000/svg" xmlns:xlink="http://www.w3.org/1999/xlink" width="154" height="154" viewBox="0 0 154 154">
    <defs>
        <filter id="prefix__a" width="686.7%" height="686.7%" x="-293.3%" y="-293.3%" filterUnits="objectBoundingBox">
            <feMorphology in="SourceAlpha" operator="dilate" radius="13.5" result="shadowSpreadOuter1"/>
            <feOffset in="shadowSpreadOuter1" result="shadowOffsetOuter1"/>
            <feGaussianBlur in="shadowOffsetOuter1" result="shadowBlurOuter1" stdDeviation="30.5"/>
            <feColorMatrix in="shadowBlurOuter1" values="0 0 0 0 0.631135671 0 0 0 0 0.810298345 0 0 0 0 1 0 0 0 1 0"/>
        </filter>
        <filter id="prefix__g" width="119.9%" height="120%" x="-9.9%" y="-10%" filterUnits="objectBoundingBox">
            <feGaussianBlur in="SourceAlpha" result="shadowBlurInner1" stdDeviation="15"/>
            <feOffset dy="1" in="shadowBlurInner1" result="shadowOffsetInner1"/>
            <feComposite in="shadowOffsetInner1" in2="SourceAlpha" k2="-1" k3="1" operator="arithmetic" result="shadowInnerInner1"/>
            <feColorMatrix in="shadowInnerInner1" values="0 0 0 0 0 0 0 0 0 0 0 0 0 0 0 0 0 0 0.9 0"/>
        </filter>
        <filter id="prefix__h" width="2500%" height="776.9%" x="-1200%" y="-338.5%" filterUnits="objectBoundingBox">
            <feMorphology in="SourceAlpha" operator="dilate" radius="13.5" result="shadowSpreadOuter1"/>
            <feOffset in="shadowSpreadOuter1" result="shadowOffsetOuter1"/>
            <feGaussianBlur in="shadowOffsetOuter1" result="shadowBlurOuter1" stdDeviation="30.5"/>
            <feColorMatrix in="shadowBlurOuter1" values="0 0 0 0 0.631135671 0 0 0 0 0.810298345 0 0 0 0 1 0 0 0 1 0"/>
        </filter>
        <filter id="prefix__j" width="2500%" height="776.9%" x="-1200%" y="-338.5%" filterUnits="objectBoundingBox">
            <feMorphology in="SourceAlpha" operator="dilate" radius="13.5" result="shadowSpreadOuter1"/>
            <feOffset in="shadowSpreadOuter1" result="shadowOffsetOuter1"/>
            <feGaussianBlur in="shadowOffsetOuter1" result="shadowBlurOuter1" stdDeviation="30.5"/>
            <feColorMatrix in="shadowBlurOuter1" values="0 0 0 0 0.631135671 0 0 0 0 0.810298345 0 0 0 0 1 0 0 0 1 0"/>
        </filter>
        <filter id="prefix__l" width="415.4%" height="400%" x="-157.7%" y="-142.7%" filterUnits="objectBoundingBox">
            <feMorphology in="SourceAlpha" operator="dilate" radius="5" result="shadowSpreadOuter1"/>
            <feOffset dy="3" in="shadowSpreadOuter1" result="shadowOffsetOuter1"/>
            <feGaussianBlur in="shadowOffsetOuter1" result="shadowBlurOuter1" stdDeviation="15"/>
            <feColorMatrix in="shadowBlurOuter1" result="shadowMatrixOuter1" values="0 0 0 0 0.631135671 0 0 0 0 0.810298345 0 0 0 0 1 0 0 0 1 0"/>
            <feMorphology in="SourceAlpha" operator="dilate" radius=".5" result="shadowSpreadOuter2"/>
            <feOffset in="shadowSpreadOuter2" result="shadowOffsetOuter2"/>
            <feGaussianBlur in="shadowOffsetOuter2" result="shadowBlurOuter2" stdDeviation="7"/>
            <feColorMatrix in="shadowBlurOuter2" result="shadowMatrixOuter2" values="0 0 0 0 1 0 0 0 0 1 0 0 0 0 1 0 0 0 0.9 0"/>
            <feMerge>
                <feMergeNode in="shadowMatrixOuter1"/>
                <feMergeNode in="shadowMatrixOuter2"/>
            </feMerge>
        </filter>
        <filter id="prefix__o" width="131.6%" height="112.8%" x="-15.8%" y="-6.4%" filterUnits="objectBoundingBox">
            <feGaussianBlur in="SourceAlpha" result="shadowBlurInner1" stdDeviation="2"/>
            <feOffset dx="1" dy="2" in="shadowBlurInner1" result="shadowOffsetInner1"/>
            <feComposite in="shadowOffsetInner1" in2="SourceAlpha" k2="-1" k3="1" operator="arithmetic" result="shadowInnerInner1"/>
            <feColorMatrix in="shadowInnerInner1" values="0 0 0 0 0 0 0 0 0 0 0 0 0 0 0 0 0 0 1 0"/>
        </filter>
        <filter id="prefix__q" width="131.6%" height="112.8%" x="-15.8%" y="-6.4%" filterUnits="objectBoundingBox">
            <feGaussianBlur in="SourceAlpha" result="shadowBlurInner1" stdDeviation="2"/>
            <feOffset dx="1" dy="2" in="shadowBlurInner1" result="shadowOffsetInner1"/>
            <feComposite in="shadowOffsetInner1" in2="SourceAlpha" k2="-1" k3="1" operator="arithmetic" result="shadowInnerInner1"/>
            <feColorMatrix in="shadowInnerInner1" values="0 0 0 0 0 0 0 0 0 0 0 0 0 0 0 0 0 0 1 0"/>
        </filter>
        <path id="prefix__c" d="M154 308C68.948 308 0 239.052 0 154S68.948 0 154 0s154 68.948 154 154-68.948 154-154 154z"/>
        <path id="prefix__f" d="M154 -1L310 -1 310 154 154 154z"/>
        <path id="prefix__m" d="M113 73c2.21 0 4 1.883 4 4.205v32.59c0 2.322-1.79 4.205-4 4.205H82c-2.21 0-4-1.883-4-4.205v-32.59C78 74.883 79.79 73 82 73h31z"/>
        <path id="prefix__n" d="M34 0h-3c-4.418 0-8 3.582-8 8v31c0 4.418 3.582 8 8 8h3c4.418 0 8-3.582 8-8V8c0-4.418-3.582-8-8-8zm0 4c2.21 0 4 1.79 4 4v31c0 2.21-1.79 4-4 4h-3c-2.21 0-4-1.79-4-4V8c0-2.21 1.79-4 4-4h3z"/>
        <path id="prefix__p" d="M11 0H8C3.582 0 0 3.582 0 8v31c0 4.418 3.582 8 8 8h3c4.418 0 8-3.582 8-8V8c0-4.418-3.582-8-8-8zm0 4c2.21 0 4 1.79 4 4v31c0 2.21-1.79 4-4 4H8c-2.21 0-4-1.79-4-4V8c0-2.21 1.79-4 4-4h3z"/>
        <rect id="prefix__b" width="45" height="45" x="47" y="64" rx="4"/>
        <rect id="prefix__i" width="11" height="39" x="81" y="75" rx="4"/>
        <rect id="prefix__k" width="11" height="39" x="104" y="75" rx="4"/>
        <linearGradient id="prefix__e" x1="50%" x2="50%" y1="0%" y2="100%">
            <stop offset="0%"/>
            <stop offset="100%" stop-opacity="0"/>
        </linearGradient>
    </defs>
    <g fill="none" fill-rule="evenodd">
        <use fill="#000" filter="url(#prefix__a)" xlink:href="#prefix__b"/>
        <g transform="rotate(-90 154 154)">
            <mask id="prefix__d" fill="#fff">
                <use xlink:href="#prefix__c"/>
            </mask>
            <g mask="url(#prefix__d)">
                <use fill="url(#prefix__e)" fill-opacity=".3" xlink:href="#prefix__f"/>
                <use fill="#000" filter="url(#prefix__g)" xlink:href="#prefix__f"/>
            </g>
        </g>
        <use fill="#000" filter="url(#prefix__h)" xlink:href="#prefix__i"/>
        <use fill="#000" filter="url(#prefix__j)" xlink:href="#prefix__k"/>
        <use fill="#000" filter="url(#prefix__l)" xlink:href="#prefix__m"/>
        <g fill="#000" transform="translate(77 71)">
            <use fill-opacity=".3" xlink:href="#prefix__n"/>
            <use filter="url(#prefix__o)" xlink:href="#prefix__n"/>
            <g>
                <use fill-opacity=".3" xlink:href="#prefix__p"/>
                <use filter="url(#prefix__q)" xlink:href="#prefix__p"/>
            </g>
        </g>
    </g>
</svg>
