<svg xmlns="http://www.w3.org/2000/svg" xmlns:xlink="http://www.w3.org/1999/xlink" width="137" height="137" viewBox="0 0 137 137">
    <defs>
        <filter id="prefix__e" width="120.2%" height="120.4%" x="-10.1%" y="-10.2%" filterUnits="objectBoundingBox">
            <feGaussianBlur in="SourceAlpha" result="shadowBlurInner1" stdDeviation="13.5"/>
            <feOffset dy="1" in="shadowBlurInner1" result="shadowOffsetInner1"/>
            <feComposite in="shadowOffsetInner1" in2="SourceAlpha" k2="-1" k3="1" operator="arithmetic" result="shadowInnerInner1"/>
            <feColorMatrix in="shadowInnerInner1" values="0 0 0 0 0 0 0 0 0 0 0 0 0 0 0 0 0 0 0.9 0"/>
        </filter>
        <filter id="prefix__f" width="684.5%" height="684.5%" x="-292.3%" y="-292.3%" filterUnits="objectBoundingBox">
            <feMorphology in="SourceAlpha" operator="dilate" radius="12" result="shadowSpreadOuter1"/>
            <feOffset in="shadowSpreadOuter1" result="shadowOffsetOuter1"/>
            <feGaussianBlur in="shadowOffsetOuter1" result="shadowBlurOuter1" stdDeviation="27"/>
            <feColorMatrix in="shadowBlurOuter1" values="0 0 0 0 1 0 0 0 0 0.384775152 0 0 0 0 0.384775152 0 0 0 0.2 0"/>
        </filter>
        <filter id="prefix__h" width="359.9%" height="378.9%" x="-130%" y="-131.9%" filterUnits="objectBoundingBox">
            <feMorphology in="SourceAlpha" operator="dilate" radius="4.5" result="shadowSpreadOuter1"/>
            <feOffset dy="3" in="shadowSpreadOuter1" result="shadowOffsetOuter1"/>
            <feGaussianBlur in="shadowOffsetOuter1" result="shadowBlurOuter1" stdDeviation="13.5"/>
            <feColorMatrix in="shadowBlurOuter1" result="shadowMatrixOuter1" values="0 0 0 0 1 0 0 0 0 0.764462652 0 0 0 0 0.764462652 0 0 0 0.648464816 0"/>
            <feMorphology in="SourceAlpha" operator="dilate" radius="1" result="shadowSpreadOuter2"/>
            <feOffset in="shadowSpreadOuter2" result="shadowOffsetOuter2"/>
            <feGaussianBlur in="shadowOffsetOuter2" result="shadowBlurOuter2" stdDeviation="6"/>
            <feColorMatrix in="shadowBlurOuter2" result="shadowMatrixOuter2" values="0 0 0 0 1 0 0 0 0 1 0 0 0 0 1 0 0 0 0.9 0"/>
            <feMerge>
                <feMergeNode in="shadowMatrixOuter1"/>
                <feMergeNode in="shadowMatrixOuter2"/>
            </feMerge>
        </filter>
        <filter id="prefix__k" width="110.9%" height="111.4%" x="-5.4%" y="-5.7%" filterUnits="objectBoundingBox">
            <feGaussianBlur in="SourceAlpha" result="shadowBlurInner1" stdDeviation="1.5"/>
            <feOffset dy="2" in="shadowBlurInner1" result="shadowOffsetInner1"/>
            <feComposite in="shadowOffsetInner1" in2="SourceAlpha" k2="-1" k3="1" operator="arithmetic" result="shadowInnerInner1"/>
            <feColorMatrix in="shadowInnerInner1" values="0 0 0 0 0 0 0 0 0 0 0 0 0 0 0 0 0 0 0.6 0"/>
        </filter>
        <path id="prefix__a" d="M137 274C61.337 274 0 212.663 0 137S61.337 0 137 0s137 61.337 137 137-61.337 137-137 137z"/>
        <path id="prefix__c" d="M0 137L138.779 137 138.779 274 0 274z"/>
        <path id="prefix__i" d="M106.753 35.584c1.966 0 3.559 1.594 3.559 3.559v25.799c0 1.965-1.593 3.558-3.559 3.558H83.461l-7.243 6.64c-.131.12-.295.198-.469.224l-.132.01c-.491 0-.89-.398-.89-.89V68.5l-3.558.001c-1.965 0-3.559-1.593-3.559-3.558v-25.8c0-1.964 1.594-3.558 3.559-3.558h35.584z"/>
        <path id="prefix__j" d="M44.588 5H9.412C6.422 5 4 7.404 4 10.369v23.265l.004.202c.106 2.872 2.487 5.167 5.408 5.167h4.51v4.628c0 1.424.57 2.79 1.585 3.796l.165.158c2.123 1.938 5.429 1.885 7.488-.158l8.49-8.424h12.938c2.99 0 5.412-2.403 5.412-5.369V10.37C50 7.404 47.577 5 44.588 5zm0 3.58c.997 0 1.804.8 1.804 1.789v23.265c0 .989-.807 1.79-1.804 1.79H30.157l-9.548 9.473c-.705.698-1.847.698-2.551 0-.339-.336-.529-.791-.529-1.266v-8.207H9.412c-.997 0-1.804-.801-1.804-1.79V10.37c0-.988.807-1.79 1.804-1.79h35.176z"/>
        <linearGradient id="prefix__d" x1="50%" x2="50%" y1="0%" y2="100%">
            <stop offset="0%"/>
            <stop offset="100%" stop-opacity="0"/>
        </linearGradient>
        <rect id="prefix__g" width="40.032" height="40.032" x="69.39" y="34.695" rx="3.558"/>
    </defs>
    <g fill="none" fill-rule="evenodd">
        <g transform="translate(-.89 -137)">
            <mask id="prefix__b" fill="#fff">
                <use xlink:href="#prefix__a"/>
            </mask>
            <g mask="url(#prefix__b)">
                <use fill="#FFF" fill-opacity=".3" xlink:href="#prefix__c"/>
                <use fill="url(#prefix__d)" fill-opacity=".3" xlink:href="#prefix__c"/>
                <use fill="#000" filter="url(#prefix__e)" xlink:href="#prefix__c"/>
            </g>
        </g>
        <use fill="#000" filter="url(#prefix__f)" xlink:href="#prefix__g"/>
        <use fill="#000" filter="url(#prefix__h)" xlink:href="#prefix__i"/>
        <g fill="#000" fill-rule="nonzero" transform="translate(60 30)">
            <use fill-opacity=".5" xlink:href="#prefix__j"/>
            <use filter="url(#prefix__k)" xlink:href="#prefix__j"/>
        </g>
    </g>
</svg>
