<svg xmlns="http://www.w3.org/2000/svg" xmlns:xlink="http://www.w3.org/1999/xlink" width="137" height="137" viewBox="0 0 137 137">
    <defs>
        <filter id="prefix__e" width="120.2%" height="120.4%" x="-10.1%" y="-10.2%" filterUnits="objectBoundingBox">
            <feGaussianBlur in="SourceAlpha" result="shadowBlurInner1" stdDeviation="13.5"/>
            <feOffset dy="1" in="shadowBlurInner1" result="shadowOffsetInner1"/>
            <feComposite in="shadowOffsetInner1" in2="SourceAlpha" k2="-1" k3="1" operator="arithmetic" result="shadowInnerInner1"/>
            <feColorMatrix in="shadowInnerInner1" values="0 0 0 0 0 0 0 0 0 0 0 0 0 0 0 0 0 0 0.9 0"/>
        </filter>
        <filter id="prefix__f" width="684.5%" height="684.5%" x="-292.3%" y="-292.3%" filterUnits="objectBoundingBox">
            <feMorphology in="SourceAlpha" operator="dilate" radius="12" result="shadowSpreadOuter1"/>
            <feOffset in="shadowSpreadOuter1" result="shadowOffsetOuter1"/>
            <feGaussianBlur in="shadowOffsetOuter1" result="shadowBlurOuter1" stdDeviation="27"/>
            <feColorMatrix in="shadowBlurOuter1" values="0 0 0 0 0.631135671 0 0 0 0 0.810298345 0 0 0 0 1 0 0 0 1 0"/>
        </filter>
        <filter id="prefix__h" width="349.5%" height="349.5%" x="-124.8%" y="-118%" filterUnits="objectBoundingBox">
            <feMorphology in="SourceAlpha" operator="dilate" radius="4.5" result="shadowSpreadOuter1"/>
            <feOffset dy="3" in="shadowSpreadOuter1" result="shadowOffsetOuter1"/>
            <feGaussianBlur in="shadowOffsetOuter1" result="shadowBlurOuter1" stdDeviation="13.5"/>
            <feColorMatrix in="shadowBlurOuter1" result="shadowMatrixOuter1" values="0 0 0 0 0.631135671 0 0 0 0 0.810298345 0 0 0 0 1 0 0 0 1 0"/>
            <feMorphology in="SourceAlpha" operator="dilate" radius="1" result="shadowSpreadOuter2"/>
            <feOffset in="shadowSpreadOuter2" result="shadowOffsetOuter2"/>
            <feGaussianBlur in="shadowOffsetOuter2" result="shadowBlurOuter2" stdDeviation="6"/>
            <feColorMatrix in="shadowBlurOuter2" result="shadowMatrixOuter2" values="0 0 0 0 1 0 0 0 0 1 0 0 0 0 1 0 0 0 0.9 0"/>
            <feMerge>
                <feMergeNode in="shadowMatrixOuter1"/>
                <feMergeNode in="shadowMatrixOuter2"/>
            </feMerge>
        </filter>
        <filter id="prefix__k" width="111.2%" height="111.2%" x="-5.6%" y="-5.6%" filterUnits="objectBoundingBox">
            <feGaussianBlur in="SourceAlpha" result="shadowBlurInner1" stdDeviation="1.5"/>
            <feOffset dy="2" in="shadowBlurInner1" result="shadowOffsetInner1"/>
            <feComposite in="shadowOffsetInner1" in2="SourceAlpha" k2="-1" k3="1" operator="arithmetic" result="shadowInnerInner1"/>
            <feColorMatrix in="shadowInnerInner1" values="0 0 0 0 0 0 0 0 0 0 0 0 0 0 0 0 0 0 0.6 0"/>
        </filter>
        <path id="prefix__a" d="M137 274C61.337 274 0 212.663 0 137S61.337 0 137 0s137 61.337 137 137-61.337 137-137 137z"/>
        <path id="prefix__c" d="M0 137L138.779 137 138.779 274 0 274z"/>
        <path id="prefix__i" d="M23.13 0c12.283 0 22.24 9.957 22.24 22.24 0 12.283-9.957 22.24-22.24 22.24C10.847 44.48.89 34.524.89 22.24.89 9.957 10.847 0 23.13 0zm0 3.558c-10.318 0-18.682 8.365-18.682 18.682 0 10.318 8.364 18.682 18.682 18.682 10.318 0 18.682-8.364 18.682-18.682 0-10.317-8.364-18.682-18.682-18.682zm0 8.897c.983 0 1.78.796 1.78 1.779v16.013c0 .982-.797 1.779-1.78 1.779s-1.78-.797-1.78-1.78V14.235c0-.983.797-1.78 1.78-1.78z"/>
        <path id="prefix__j" d="M26.24 4c12.283 0 22.24 9.957 22.24 22.24 0 12.283-9.957 22.24-22.24 22.24C13.957 48.48 4 38.524 4 26.24 4 13.957 13.957 4 26.24 4zm0 3.558c-10.317 0-18.682 8.365-18.682 18.682 0 10.318 8.365 18.682 18.682 18.682 10.318 0 18.682-8.364 18.682-18.682 0-10.317-8.364-18.682-18.682-18.682zm0 8.897c.983 0 1.78.796 1.78 1.779v16.013c0 .982-.797 1.779-1.78 1.779-.982 0-1.779-.797-1.779-1.78V18.235c0-.983.797-1.78 1.78-1.78z"/>
        <linearGradient id="prefix__d" x1="50%" x2="50%" y1="0%" y2="100%">
            <stop offset="0%"/>
            <stop offset="100%" stop-opacity="0"/>
        </linearGradient>
        <rect id="prefix__g" width="40.032" height="40.032" x="2.669" y="4.448" rx="3.558"/>
    </defs>
    <g fill="none" fill-rule="evenodd">
        <g transform="matrix(-1 0 0 1 138 -137)">
            <mask id="prefix__b" fill="#fff">
                <use xlink:href="#prefix__a"/>
            </mask>
            <g mask="url(#prefix__b)">
                <use fill="#FFF" fill-opacity=".3" xlink:href="#prefix__c"/>
                <use fill="url(#prefix__d)" fill-opacity=".3" xlink:href="#prefix__c"/>
                <use fill="#000" filter="url(#prefix__e)" xlink:href="#prefix__c"/>
            </g>
        </g>
        <g fill="#000" transform="translate(37.364 33.805)">
            <use filter="url(#prefix__f)" xlink:href="#prefix__g"/>
            <use filter="url(#prefix__h)" xlink:href="#prefix__i"/>
        </g>
        <g fill="#000" fill-rule="nonzero" transform="translate(33.474 29.805)">
            <use fill-opacity=".5" xlink:href="#prefix__j"/>
            <use filter="url(#prefix__k)" xlink:href="#prefix__j"/>
        </g>
    </g>
</svg>
