<svg xmlns="http://www.w3.org/2000/svg" width="154" height="154" viewBox="0 0 154 154">
    <path fill-opacity=".3" d="M112.866 87.558L87.8 69.504C86.443 68.526 84.81 68 83.136 68c-4.4 0-7.967 3.557-7.967 7.946v36.108c0 1.67.527 3.298 1.508 4.652 2.576 3.557 7.557 4.358 11.124 1.79l25.065-18.055c.69-.497 1.295-1.1 1.794-1.79 2.576-3.557 1.773-8.523-1.794-11.093zm-1.451 8.765c-.25.344-.552.645-.896.894l-25.04 18.031c-1.783 1.284-4.27.884-5.557-.893-.49-.676-.754-1.49-.754-2.323V75.968c0-2.191 1.782-3.968 3.98-3.968.837 0 1.652.263 2.33.751l25.04 18.032c1.782 1.283 2.184 3.764.897 5.54z"/>
</svg>
