<svg xmlns="http://www.w3.org/2000/svg" xmlns:xlink="http://www.w3.org/1999/xlink" width="154" height="154" viewBox="0 0 154 154">
    <defs>
        <path id="prefix__a" d="M0 0H154V154H0z"/>
    </defs>
    <g fill="none" fill-rule="evenodd">
        <mask id="prefix__b" fill="#fff">
            <use xlink:href="#prefix__a"/>
        </mask>
        <g fill-opacity=".3" mask="url(#prefix__b)">
            <g>
                <path fill="#000" fill-rule="nonzero" d="M34 0h-3c-4.418 0-8 3.582-8 8v31c0 4.418 3.582 8 8 8h3c4.418 0 8-3.582 8-8V8c0-4.418-3.582-8-8-8zm0 4c2.21 0 4 1.79 4 4v31c0 2.21-1.79 4-4 4h-3c-2.21 0-4-1.79-4-4V8c0-2.21 1.79-4 4-4h3zM11 0H8C3.582 0 0 3.582 0 8v31c0 4.418 3.582 8 8 8h3c4.418 0 8-3.582 8-8V8c0-4.418-3.582-8-8-8zm0 4c2.21 0 4 1.79 4 4v31c0 2.21-1.79 4-4 4H8c-2.21 0-4-1.79-4-4V8c0-2.21 1.79-4 4-4h3z" transform="translate(77 71)"/>
            </g>
        </g>
    </g>
</svg>
