<svg xmlns="http://www.w3.org/2000/svg" width="137" height="137" viewBox="0 0 137 137">
    <path fill-opacity=".3" d="M59.714 33.805c12.283 0 22.24 9.957 22.24 22.24 0 12.283-9.957 22.24-22.24 22.24-12.283 0-22.24-9.957-22.24-22.24 0-12.283 9.957-22.24 22.24-22.24zm0 3.559c-10.317 0-18.682 8.364-18.682 18.681 0 10.318 8.365 18.682 18.682 18.682 10.318 0 18.682-8.364 18.682-18.682 0-10.317-8.364-18.681-18.682-18.681zm0 8.896c.983 0 1.78.796 1.78 1.779v16.013c0 .983-.797 1.78-1.78 1.78-.982 0-1.779-.797-1.779-1.78V48.039c0-.983.797-1.78 1.78-1.78z"/>
</svg>
