<svg xmlns="http://www.w3.org/2000/svg" xmlns:xlink="http://www.w3.org/1999/xlink" width="137" height="137" viewBox="0 0 137 137">
    <defs>
        <path id="prefix__a" d="M0 0H137V137H0z"/>
    </defs>
    <g fill="none" fill-rule="evenodd">
        <mask id="prefix__b" fill="#fff">
            <use xlink:href="#prefix__a"/>
        </mask>
        <g fill="#000" fill-opacity=".3" fill-rule="nonzero" mask="url(#prefix__b)">
            <path d="M104.588 35H69.412C66.422 35 64 37.404 64 40.369v23.265l.004.202c.106 2.872 2.487 5.167 5.408 5.167h4.51v4.628c0 1.424.57 2.79 1.585 3.796l.165.158c2.123 1.938 5.429 1.885 7.488-.158l8.49-8.424h12.938c2.99 0 5.412-2.403 5.412-5.369V40.37c0-2.965-2.423-5.369-5.412-5.369zm0 3.58c.997 0 1.804.8 1.804 1.789v23.265c0 .989-.807 1.79-1.804 1.79H90.157l-9.548 9.473c-.705.698-1.847.698-2.551 0-.339-.336-.529-.791-.529-1.266v-8.207h-8.117c-.997 0-1.804-.801-1.804-1.79V40.37c0-.988.807-1.79 1.804-1.79h35.176z"/>
        </g>
    </g>
</svg>
