<svg xmlns="http://www.w3.org/2000/svg" xmlns:xlink="http://www.w3.org/1999/xlink" width="553" height="239" viewBox="0 0 553 239">
    <defs>
        <filter id="prefix__a" width="120.9%" height="165.2%" x="-10.5%" y="-32.3%" filterUnits="objectBoundingBox">
            <feMorphology in="SourceAlpha" operator="dilate" radius="3" result="shadowSpreadOuter1"/>
            <feOffset in="shadowSpreadOuter1" result="shadowOffsetOuter1"/>
            <feGaussianBlur in="shadowOffsetOuter1" result="shadowBlurOuter1" stdDeviation="14.5"/>
            <feComposite in="shadowBlurOuter1" in2="SourceAlpha" operator="out" result="shadowBlurOuter1"/>
            <feColorMatrix in="shadowBlurOuter1" values="0 0 0 0 0.450980392 0 0 0 0 0.717647059 0 0 0 0 1 0 0 0 0.43 0"/>
        </filter>
        <filter id="prefix__d" width="121.1%" height="165.9%" x="-10.6%" y="-32.6%" filterUnits="objectBoundingBox">
            <feGaussianBlur in="SourceAlpha" result="shadowBlurInner1" stdDeviation="15"/>
            <feOffset in="shadowBlurInner1" result="shadowOffsetInner1"/>
            <feComposite in="shadowOffsetInner1" in2="SourceAlpha" k2="-1" k3="1" operator="arithmetic" result="shadowInnerInner1"/>
            <feColorMatrix in="shadowInnerInner1" values="0 0 0 0 0 0 0 0 0 0.333563911 0 0 0 0 0.696133379 0 0 0 0.7 0"/>
        </filter>
        <filter id="prefix__e" width="148.2%" height="228.6%" x="-24.1%" y="-64.3%" filterUnits="objectBoundingBox">
            <feOffset in="SourceAlpha" result="shadowOffsetOuter1"/>
            <feGaussianBlur in="shadowOffsetOuter1" result="shadowBlurOuter1" stdDeviation="14.5"/>
            <feComposite in="shadowBlurOuter1" in2="SourceAlpha" operator="out" result="shadowBlurOuter1"/>
            <feColorMatrix in="shadowBlurOuter1" values="0 0 0 0 1 0 0 0 0 0.751435452 0 0 0 0 0.450980392 0 0 0 0.0658052885 0"/>
        </filter>
        <filter id="prefix__h" width="148.8%" height="230.1%" x="-24.4%" y="-65%" filterUnits="objectBoundingBox">
            <feGaussianBlur in="SourceAlpha" result="shadowBlurInner1" stdDeviation="15"/>
            <feOffset in="shadowBlurInner1" result="shadowOffsetInner1"/>
            <feComposite in="shadowOffsetInner1" in2="SourceAlpha" k2="-1" k3="1" operator="arithmetic" result="shadowInnerInner1"/>
            <feColorMatrix in="shadowInnerInner1" result="shadowMatrixInner1" values="0 0 0 0 0 0 0 0 0 0 0 0 0 0 0 0 0 0 1 0"/>
            <feGaussianBlur in="SourceAlpha" result="shadowBlurInner2" stdDeviation="14"/>
            <feOffset dx="1" dy="1" in="shadowBlurInner2" result="shadowOffsetInner2"/>
            <feComposite in="shadowOffsetInner2" in2="SourceAlpha" k2="-1" k3="1" operator="arithmetic" result="shadowInnerInner2"/>
            <feColorMatrix in="shadowInnerInner2" result="shadowMatrixInner2" values="0 0 0 0 0.202915396 0 0 0 0 0.566271708 0 0 0 0 1 0 0 0 1 0"/>
            <feMerge>
                <feMergeNode in="shadowMatrixInner1"/>
                <feMergeNode in="shadowMatrixInner2"/>
            </feMerge>
        </filter>
        <radialGradient id="prefix__c" cx="49.658%" cy="100%" r="101.849%" fx="49.658%" fy="100%" gradientTransform="matrix(0 -1 .31162 0 .185 1.497)">
            <stop offset="0%" stop-opacity="0"/>
            <stop offset="83.633%" stop-opacity="0"/>
            <stop offset="100%" stop-opacity=".99"/>
        </radialGradient>
        <radialGradient id="prefix__g" cx="49.658%" cy="100%" r="101.849%" fx="49.658%" fy="100%" gradientTransform="matrix(0 -1 .37163 0 .125 1.497)">
            <stop offset="0%" stop-opacity="0"/>
            <stop offset="83.633%" stop-opacity="0"/>
            <stop offset="100%" stop-opacity=".99"/>
        </radialGradient>
        <path id="prefix__b" d="M184.605 71.932l21.413 52.811c-40.143 14.677-74.983 40.307-100.874 73.258L55 169.808c32.477-44.04 77.405-78.385 129.605-97.876zm198.858-.251c52.09 19.3 96.978 53.376 129.537 97.125l-50.06 28.36c-25.966-32.73-60.798-58.153-100.882-72.665zM284.371 54c31.384 0 61.583 5.067 89.818 14.427l-21.45 52.927c-21.58-6.768-44.546-10.417-68.368-10.417-24.094 0-47.313 3.733-69.107 10.65l-21.453-52.913C222.258 59.157 252.71 54 284.37 54z"/>
        <path id="prefix__f" d="M134.992 76c31.238 0 61.303 5.02 89.427 14.295l-22.44 52.656c-21.178-6.492-43.673-9.986-66.987-9.986-24.142 0-47.405 3.747-69.237 10.689L43.987 90.82C72.563 81.21 103.168 76 134.992 76z"/>
    </defs>
    <g fill="none" fill-rule="evenodd">
        <g stroke-linejoin="round">
            <use fill="#000" filter="url(#prefix__a)" xlink:href="#prefix__b"/>
            <use fill="#000" fill-opacity=".5" xlink:href="#prefix__b"/>
            <use fill="url(#prefix__c)" fill-opacity=".5" xlink:href="#prefix__b"/>
            <use fill="#000" filter="url(#prefix__d)" xlink:href="#prefix__b"/>
            <path stroke="#7B95B0" stroke-opacity=".4" stroke-width="3" d="M185.448 70.02c-53.598 19.7-99.654 54.95-132.659 100.266l52.744 29.654c26.11-33.622 61.555-59.68 102.46-74.316L185.449 70.02zm197.17-.248l-22.537 55.614c40.849 14.47 76.287 40.319 102.478 73.72l52.654-29.83c-33.09-45.02-79.107-79.997-132.595-99.504zM284.371 52.5c-32.387 0-63.52 5.369-92.549 15.262l22.575 55.679c22.033-7.143 45.551-11.004 69.974-11.004 24.151 0 47.418 3.775 69.238 10.766l22.57-55.692C347.36 57.778 316.483 52.5 284.37 52.5z"/>
            <path stroke="#000" stroke-linejoin="square" stroke-opacity=".51" stroke-width="3" d="M183.764 73.85C132.96 93.123 89.158 126.564 57.22 169.336l47.543 26.73c25.661-32.285 59.9-57.488 99.285-72.193l-20.283-50.021zm200.542-.253l-20.275 50.028c39.324 14.543 73.551 39.54 99.283 71.606l47.464-26.89C478.763 125.857 435 92.679 384.306 73.597zM284.37 55.5c-30.931 0-60.705 4.948-88.569 14.094l20.333 50.148c21.552-6.696 44.471-10.305 68.236-10.305 23.493 0 46.16 3.527 67.496 10.076l20.329-50.162c-27.65-8.99-57.169-13.851-87.825-13.851z"/>
        </g>
        <g opacity=".8" transform="translate(150 -22)">
            <use fill="#000" filter="url(#prefix__e)" xlink:href="#prefix__f"/>
            <use fill="#000" fill-opacity=".5" xlink:href="#prefix__f"/>
            <use fill="url(#prefix__g)" fill-opacity=".5" xlink:href="#prefix__f"/>
            <use fill="#000" filter="url(#prefix__h)" xlink:href="#prefix__f"/>
            <path stroke="#000" stroke-linejoin="square" stroke-opacity=".51" stroke-width="3" d="M134.992 77.5c-31.092 0-61.016 4.999-89.005 14.235l20.63 50.075c21.594-6.722 44.56-10.345 68.375-10.345 22.993 0 45.196 3.377 66.135 9.66l21.27-49.913C194.868 82.31 165.492 77.5 134.992 77.5z"/>
        </g>
    </g>
</svg>
