<svg xmlns="http://www.w3.org/2000/svg" xmlns:xlink="http://www.w3.org/1999/xlink" width="553" height="239" viewBox="0 0 553 239">
    <defs>
        <filter id="hcxl029f2a" width="120.9%" height="165.2%" x="-10.5%" y="-32.3%" filterUnits="objectBoundingBox">
            <feMorphology in="SourceAlpha" operator="dilate" radius="3" result="shadowSpreadOuter1"/>
            <feOffset in="shadowSpreadOuter1" result="shadowOffsetOuter1"/>
            <feGaussianBlur in="shadowOffsetOuter1" result="shadowBlurOuter1" stdDeviation="14.5"/>
            <feComposite in="shadowBlurOuter1" in2="SourceAlpha" operator="out" result="shadowBlurOuter1"/>
            <feColorMatrix in="shadowBlurOuter1" values="0 0 0 0 1 0 0 0 0 1 0 0 0 0 1 0 0 0 0.43 0"/>
        </filter>
        <filter id="l6dm1rdchd" width="121.1%" height="165.9%" x="-10.6%" y="-32.6%" filterUnits="objectBoundingBox">
            <feGaussianBlur in="SourceAlpha" result="shadowBlurInner1" stdDeviation="15"/>
            <feOffset in="shadowBlurInner1" result="shadowOffsetInner1"/>
            <feComposite in="shadowOffsetInner1" in2="SourceAlpha" k2="-1" k3="1" operator="arithmetic" result="shadowInnerInner1"/>
            <feColorMatrix in="shadowInnerInner1" values="0 0 0 0 1 0 0 0 0 1 0 0 0 0 1 0 0 0 0.331676136 0"/>
        </filter>
        <filter id="zzoqedpiae" width="157.6%" height="169.1%" x="-28.8%" y="-34.5%" filterUnits="objectBoundingBox">
            <feOffset in="SourceAlpha" result="shadowOffsetOuter1"/>
            <feGaussianBlur in="shadowOffsetOuter1" result="shadowBlurOuter1" stdDeviation="14.5"/>
            <feComposite in="shadowBlurOuter1" in2="SourceAlpha" operator="out" result="shadowBlurOuter1"/>
            <feColorMatrix in="shadowBlurOuter1" values="0 0 0 0 1 0 0 0 0 0.751435452 0 0 0 0 0.450980392 0 0 0 0.0658052885 0"/>
        </filter>
        <filter id="r93ayxw9sg" width="158.2%" height="169.9%" x="-29.1%" y="-34.9%" filterUnits="objectBoundingBox">
            <feGaussianBlur in="SourceAlpha" result="shadowBlurInner1" stdDeviation="15"/>
            <feOffset in="shadowBlurInner1" result="shadowOffsetInner1"/>
            <feComposite in="shadowOffsetInner1" in2="SourceAlpha" k2="-1" k3="1" operator="arithmetic" result="shadowInnerInner1"/>
            <feColorMatrix in="shadowInnerInner1" result="shadowMatrixInner1" values="0 0 0 0 0 0 0 0 0 0 0 0 0 0 0 0 0 0 1 0"/>
            <feGaussianBlur in="SourceAlpha" result="shadowBlurInner2" stdDeviation="4"/>
            <feOffset dx="1" dy="-2" in="shadowBlurInner2" result="shadowOffsetInner2"/>
            <feComposite in="shadowOffsetInner2" in2="SourceAlpha" k2="-1" k3="1" operator="arithmetic" result="shadowInnerInner2"/>
            <feColorMatrix in="shadowInnerInner2" result="shadowMatrixInner2" values="0 0 0 0 0.262709466 0 0 0 0 0.247206203 0 0 0 0 0.247206203 0 0 0 1 0"/>
            <feMerge>
                <feMergeNode in="shadowMatrixInner1"/>
                <feMergeNode in="shadowMatrixInner2"/>
            </feMerge>
        </filter>
        <path id="zj09t05xxb" d="M184.605 71.932l21.413 52.811c-40.143 14.677-74.983 40.307-100.874 73.258L55 169.808c32.477-44.04 77.405-78.385 129.605-97.876zm198.858-.251c52.09 19.3 96.978 53.376 129.537 97.125l-50.06 28.36c-25.966-32.73-60.798-58.153-100.882-72.665zM284.371 54c31.384 0 61.583 5.067 89.818 14.427l-21.45 52.927c-21.58-6.768-44.546-10.417-68.368-10.417-24.094 0-47.313 3.733-69.107 10.65l-21.453-52.913C222.258 59.157 252.71 54 284.37 54z"/>
        <path id="cjwu7kt78f" d="M184.064 72.09l22.034 52.629c-40.15 14.693-74.996 40.33-100.896 73.28l-50.201-28.215c32.371-43.881 77.098-78.143 129.063-97.694z"/>
        <radialGradient id="4pqv93v34c" cx="49.658%" cy="100%" r="101.849%" fx="49.658%" fy="100%" gradientTransform="matrix(0 -1 .31162 0 .185 1.497)">
            <stop offset="0%" stop-color="#7C7C7C" stop-opacity="0"/>
            <stop offset="83.633%" stop-opacity="0"/>
            <stop offset="100%" stop-opacity=".99"/>
        </radialGradient>
    </defs>
    <g fill="none" fill-rule="evenodd">
        <g stroke-linejoin="round">
            <use fill="#000" filter="url(#hcxl029f2a)" xlink:href="#zj09t05xxb"/>
            <use fill="#FFF" fill-opacity=".1" xlink:href="#zj09t05xxb"/>
            <use fill="url(#4pqv93v34c)" fill-opacity=".5" xlink:href="#zj09t05xxb"/>
            <use fill="#000" filter="url(#l6dm1rdchd)" xlink:href="#zj09t05xxb"/>
            <path stroke="#FFF" stroke-opacity=".3" stroke-width="3" d="M185.448 70.02l22.546 55.604c-40.906 14.635-76.35 40.694-102.461 74.316h0l-52.744-29.654C85.794 124.97 131.85 89.721 185.448 70.02h0zm197.17-.248c53.488 19.507 99.505 54.485 132.595 99.504h0l-52.654 29.83c-26.19-33.401-61.63-59.25-102.478-73.72h0zM284.371 52.5c32.112 0 62.99 5.278 91.808 15.01h0l-22.57 55.693c-21.82-6.99-45.087-10.766-69.238-10.766-24.423 0-47.941 3.86-69.974 11.004h0l-22.575-55.679c29.03-9.893 60.162-15.262 92.55-15.262z"/>
            <path stroke="#000" stroke-linejoin="square" stroke-opacity=".51" stroke-width="3" d="M183.764 73.85l20.283 50.022c-39.385 14.705-73.624 39.908-99.285 72.193h0l-47.543-26.73c31.939-42.772 75.741-76.213 126.545-95.484h0zm200.542-.253c50.695 19.082 94.457 52.26 126.472 94.744h0l-47.464 26.89c-25.732-32.066-59.96-57.063-99.283-71.606h0zM284.37 55.5c30.656 0 60.176 4.86 87.825 13.851h0l-20.329 50.162c-21.336-6.55-44.003-10.076-67.496-10.076-23.765 0-46.684 3.609-68.236 10.305h0l-20.333-50.148c27.864-9.146 57.638-14.094 88.57-14.094h0z"/>
        </g>
        <g opacity=".8">
            <use fill="#000" filter="url(#zzoqedpiae)" xlink:href="#cjwu7kt78f"/>
            <use fill="#FFF" fill-opacity=".5" xlink:href="#cjwu7kt78f"/>
            <use fill="#000" filter="url(#r93ayxw9sg)" xlink:href="#cjwu7kt78f"/>
        </g>
    </g>
</svg>
